<svg width="24" height="24" viewBox="0 0 24 24" fill="none" xmlns="http://www.w3.org/2000/svg">
<path d="M14.1601 20.425C13.2142 21.098 12.298 21.6009 11.5405 21.8558C11.1897 21.9738 10.811 21.974 10.4602 21.8559C7.46833 20.8495 2 15.9733 2 12.025C2.0001 11.2064 2.00004 6.55836 2.00001 4.54966C2.00001 4.02744 2.39924 3.59199 2.91786 3.53086C4.82212 3.30638 9.17234 2.63551 10.9458 1.04953C10.9771 1.0215 11.0229 1.0215 11.0542 1.04952C12.8278 2.63551 17.1779 3.30639 19.0821 3.53086C19.6007 3.59199 19.9999 4.02742 20 4.54962C20 6.55831 20 11.2064 19.9999 12.025C19.9999 12.1913 19.9902 12.3592 19.9714 12.5284" stroke="#D3F538" stroke-width="1.5" stroke-linecap="round"/>
<path d="M6.25134 16.2963C6.25134 15.0777 7.47468 13.8592 8.08398 13.8592M11.1304 13.8591C12.5864 13.8591 13.5676 13.8591 14.1769 13.8592M11.1304 13.8591L14.1769 13.8592M11.1304 13.8591C9.67443 13.8591 8.69327 13.8592 8.08398 13.8592M14.1769 13.8592H8.08398M14.1769 13.8592C14.4193 13.8592 14.6809 13.9695 14.9281 14.1569C15.0731 14.2668 15.2132 14.4032 15.3416 14.5595" stroke="#D3F538" stroke-width="1.2" stroke-linecap="round"/>
<path d="M11.0792 5.31979H11.1721C12.4976 5.31979 13.5721 6.3943 13.5721 7.71979V9.03128C13.5721 10.3568 12.4976 11.4313 11.1721 11.4313H11.0792C9.75374 11.4313 8.67922 10.3568 8.67922 9.03128V7.71979C8.67922 6.3943 9.75374 5.31979 11.0792 5.31979Z" stroke="#D3F538" stroke-width="1.2"/>
<circle cx="19.7512" cy="18.2512" r="3.65121" stroke="#D3F538" stroke-width="1.2"/>
<path d="M18.157 18.5701L19.1516 19.5647C19.2297 19.6428 19.3564 19.6428 19.4345 19.5647L21.4919 17.5073" stroke="#D3F538" stroke-linecap="round"/>
</svg>
