<svg width="800px" height="800px" viewBox="35 14 1 45" version="1.1" xmlns="http://www.w3.org/2000/svg" xmlns:xlink="http://www.w3.org/1999/xlink"><title>the-modern-web/web-authentication-api</title><desc>Created with Sketch.</desc><defs/><g id="the-modern-web/web-authentication-api" stroke="none" stroke-width="1" fill="none" fill-rule="evenodd"><g id="container" transform="translate(2 2)" fill="#FFFFFF" fill-rule="nonzero" stroke="#3F3F49" stroke-width="2"/><g id="fingerprint" transform="translate(18 14)" fill-rule="nonzero"><path d="M16.69 39.71H13.864A13.864 13.864 0 0 1 0 25.846V13.866A13.864 13.864 0 0 1 13.866 0h2.826a13.864 13.864 0 0 1 13.866 13.866v11.98a13.86 13.86 0 0 1 -13.866 13.866" id="Shape" fill="#91a7ff"/><path d="M16.69 0H13.864q-0.524 0 -1.038 0.038A13.86 13.86 0 0 1 25.651 13.864v11.98a13.864 13.864 0 0 1 -12.826 13.826q0.514 0.04 1.04 0.04h2.824a13.868 13.868 0 0 0 13.866 -13.866V13.866A13.868 13.868 0 0 0 16.69 0" id="Shape" fill="#ffc180"/><path d="M14.91 34.746h-4.311a0.686 0.686 0 1 1 0 -1.374h4.314c6 0 10.882 -4.882 10.882 -10.882v-7.677a8.474 8.474 0 0 0 -8.464 -8.466h-3.84a8.474 8.474 0 0 0 -8.464 8.466v7.204A8.16 8.16 0 0 0 13.177 30.168h1.55a7.864 7.864 0 0 0 7.86 -7.86v-7.23a5.68 5.68 0 0 0 -5.679 -5.678h-3.05a5.68 5.68 0 0 0 -5.678 5.678v6.362a5.68 5.68 0 0 0 5.678 5.678 5.68 5.68 0 0 0 5.678 -5.678v-5.813a3.024 3.024 0 0 0 -3.022 -3.02h-2.103a3.024 3.024 0 0 0 -3.022 3.02v5.86a2.416 2.416 0 0 0 2.412 2.41h0.114a2.416 2.416 0 0 0 2.412 -2.41v-4.754a0.918 0.918 0 0 0 -1.836 0v4.55a0.686 0.686 0 1 1 -1.374 0v-4.55a2.296 2.296 0 0 1 2.29 -2.29 2.296 2.296 0 0 1 2.29 2.29v4.754a3.79 3.79 0 0 1 -3.784 3.786h-0.114a3.79 3.79 0 0 1 -3.786 -3.786v-5.86a4.4 4.4 0 0 1 4.394 -4.394h2.102a4.4 4.4 0 0 1 4.394 4.394V21.44a7.06 7.06 0 0 1 -7.05 7.05 7.06 7.06 0 0 1 -7.04 -7.05v-6.362a7.06 7.06 0 0 1 7.05 -7.05h3.05a7.06 7.06 0 0 1 7.05 7.05v7.23a9.24 9.24 0 0 1 -9.232 9.234h-1.554A9.536 9.536 0 0 1 3.656 22.022v-7.208A9.85 9.85 0 0 1 13.494 4.976h3.838a9.85 9.85 0 0 1 9.838 9.838v7.678a12.27 12.27 0 0 1 -12.256 12.256" id="Shape" fill="#4263eb"/><path d="m27.764 27.124 0.004 4.794a0.34 0.34 0 0 0 0.214 0.322 2.336 2.336 0 0 1 0.004 4.316 0.34 0.34 0 0 0 -0.214 0.324l0.002 0.834c0 0.094 0.038 0.184 0.104 0.25l2.074 2.07a0.354 0.354 0 0 1 0 0.502l-2.07 2.074a0.344 0.344 0 0 0 -0.104 0.25l0.002 2.078c0 0.196 0.158 0.354 0.354 0.354l4.246 -0.004a0.354 0.354 0 0 0 0.354 -0.354l-0.018 -17.814a0.354 0.354 0 0 0 -0.354 -0.354l-4.246 0.004a0.354 0.354 0 0 0 -0.354 0.354" id="Shape" fill="#91a7ff"/><path d="M32.362 26.766h-1.13l0.016 17.002a0.354 0.354 0 0 1 -0.354 0.354l-3.116 0.002 0.002 0.814c0 0.196 0.158 0.354 0.354 0.354l4.246 -0.004a0.354 0.354 0 0 0 0.354 -0.354L32.718 27.12a0.354 0.354 0 0 0 -0.354 -0.354" id="Shape" fill="#4263eb"/><path d="M30.258 14.814a7.326 7.326 0 1 0 0 14.654 7.326 7.326 0 0 0 0 -14.654m0 6.744a2.196 2.196 0 1 1 0 -4.39 2.196 2.196 0 0 1 0 4.39" id="Shape" fill="#91a7ff"/><path d="M32.368 15.126A7.326 7.326 0 0 1 25.654 27.84a7.326 7.326 0 1 0 6.714 -12.714" id="Shape" fill="#4263eb"/></g></g></svg>