<svg width="238" height="238" viewBox="0 0 238 238" fill="none" xmlns="http://www.w3.org/2000/svg">
<circle cx="147.158" cy="91.1579" r="28.1579" fill="#FFC10D"/>
<circle cx="147.158" cy="91.1579" r="28.1579" stroke="black"/>
<path d="M98.7329 44.5711L98.7423 44.5617C124.832 18.4774 167.188 18.4802 193.361 44.5654L197.597 40.3156L193.361 44.5654C219.538 70.6541 219.538 113.189 193.449 139.278L193.355 139.372L193.351 139.376C176.122 156.452 151.894 162.332 129.964 156.862L126.673 156.041L124.273 158.437L77.3092 205.319L77.2842 205.344L77.2595 205.369C75.6504 207.013 73.3206 208.287 70.8858 209.077C68.4527 209.865 65.8261 210.198 63.5791 209.881L63.5318 209.873L63.482 209.866L44.5174 207.257C44.5158 207.257 44.5141 207.257 44.5124 207.256C41.1483 206.788 37.9413 204.975 35.4678 202.49L35.4673 202.49C32.9916 200.003 31.1871 196.786 30.6745 193.433C30.6744 193.432 30.6743 193.432 30.6742 193.431L30.6657 193.375L28.0618 174.446L28.0575 174.415L28.0528 174.383L28.052 174.379C28.0515 174.375 28.0509 174.371 28.0504 174.367C27.7276 172.106 28.1091 169.468 28.9196 167.036C29.7343 164.592 31.0139 162.263 32.5694 160.659L32.5755 160.653L32.6122 160.615L36.6552 156.573L52.4979 172.415C52.498 172.415 52.4981 172.415 52.4983 172.415C57.525 177.442 65.6748 177.442 70.7017 172.416C75.729 167.389 75.7292 159.239 70.7022 154.212C70.702 154.212 70.7018 154.212 70.7017 154.212L54.8592 138.369L58.475 134.753L74.6823 150.96C74.6824 150.96 74.6825 150.96 74.6827 150.96C79.7096 155.988 87.86 155.987 92.8868 150.96C97.9134 145.934 97.9133 137.783 92.8866 132.757C92.8864 132.757 92.8862 132.757 92.886 132.757L76.6793 116.55L79.4993 113.73L81.8907 111.338L81.0832 108.054C75.6629 86.0104 81.4941 61.7305 98.7329 44.5711ZM146.66 60.9391C129.91 60.9391 116.331 74.5175 116.331 91.2675C116.331 108.017 129.91 121.596 146.66 121.596C163.409 121.596 176.988 108.017 176.988 91.2675C176.988 74.5177 163.41 60.9391 146.66 60.9391Z" fill="#91A7FF" stroke="#4263EB" stroke-width="12"/>
</svg>
