<svg width="24" height="24" viewBox="0 0 24 24" fill="none" xmlns="http://www.w3.org/2000/svg">
<g clip-path="url(#clip0_36_2)">
<mask id="mask0_36_2" style="mask-type:luminance" maskUnits="userSpaceOnUse" x="0" y="0" width="24" height="24">
<path d="M24 0H0V24H24V0Z" fill="white"/>
</mask>
<g mask="url(#mask0_36_2)">
<path d="M22.08 12C22.08 14.0326 17.5667 15.68 12 15.68C6.43334 15.68 1.92004 14.0326 1.92004 12" stroke="#D3F538" stroke-width="1.5"/>
<path d="M22.08 19.36C22.08 21.3926 17.5667 23.04 12 23.04C6.43334 23.04 1.92004 21.3926 1.92004 19.36" stroke="#D3F538" stroke-width="1.5"/>
<path d="M12 8.32001C17.5671 8.32001 22.08 6.67241 22.08 4.64002C22.08 2.60761 17.5671 0.960022 12 0.960022C6.433 0.960022 1.92004 2.60761 1.92004 4.64002C1.92004 6.67241 6.433 8.32001 12 8.32001Z" fill="#16190E" fill-opacity="0.152941" stroke="#D3F538" stroke-width="1.5"/>
<path d="M1.92004 4.64001V19.36" stroke="#D3F538" stroke-width="1.5"/>
<path d="M22.0801 4.64001V19.36" stroke="#D3F538" stroke-width="1.5"/>
</g>
</g>
<defs>
<clipPath id="clip0_36_2">
<rect width="24" height="24" fill="white"/>
</clipPath>
</defs>
</svg>
