<svg width="24" height="24" viewBox="0 0 24 24" fill="none" xmlns="http://www.w3.org/2000/svg">
<g clip-path="url(#clip0_36_14)">
<path d="M1.33862 12.2167V21.7287L7.12165 16.9372L1.33862 12.2167Z" fill="#16190E" fill-opacity="0.152941"/>
<path d="M22.6614 12.2167L16.8784 16.9372L22.6614 21.7287V12.2167Z" fill="#16190E" fill-opacity="0.152941"/>
<path d="M13.276 19.88C12.5452 20.4607 11.534 20.5041 10.7321 19.88L8.17638 17.7944L2.29858 22.6649H21.7016L15.8238 17.7983L13.276 19.88Z" fill="#16190E" fill-opacity="0.152941"/>
<path d="M23.9927 10.1745C23.9927 9.57017 23.7241 8.99348 23.25 8.60633L20.4691 6.33499V3.22628C20.4691 2.85893 20.1728 2.55873 19.8016 2.55873H15.8356C15.8119 2.53502 13.276 0.453281 13.276 0.453281C12.5412 -0.151094 11.4668 -0.151094 10.7321 0.453281L8.15267 2.55873H4.19457C3.82721 2.55873 3.52701 2.85496 3.52701 3.22628V6.33505L0.742155 8.6103C0.276057 8.99739 0.00744629 9.57414 0.00744629 10.1785V22.0724C0.00744629 23.135 0.87255 24 1.9272 24H22.065C23.1276 24 23.9926 23.1349 23.9926 22.0724V10.1745C23.9927 10.1824 23.9927 10.1824 23.9927 10.1745ZM1.33865 12.2167L7.12161 16.9372L1.33865 21.7287V12.2167ZM13.276 19.8801L15.8317 17.7944L21.7055 22.6609H2.29852L8.17632 17.7944L10.732 19.8801C11.534 20.5081 12.5412 20.4607 13.276 19.8801ZM16.8784 16.9372L22.6614 12.2167V21.7326L16.8784 16.9372ZM22.4126 10.6959L20.4731 12.2839V8.06122L22.4126 9.64918C22.7365 9.8862 22.7405 10.4392 22.4126 10.6959ZM11.5695 1.49216C11.8183 1.29071 12.1778 1.29071 12.4306 1.49216L13.7421 2.56264H10.2581L11.5695 1.49216ZM19.1379 3.90178V13.3742L12.4306 18.849C12.1817 19.0505 11.8222 19.0505 11.5695 18.849L4.86212 13.3742V8.66957H6.07087C6.43823 8.66957 6.73843 8.37334 6.73843 8.00201C6.73843 7.63466 6.4422 7.33446 6.07087 7.33446H4.86218V6.14544H7.33101C7.69836 6.14544 7.99857 5.84921 7.99857 5.47789C7.99857 5.11053 7.70234 4.81033 7.33101 4.81033H4.86218V3.89384H19.1379V3.90178ZM1.58752 9.6413L3.52701 8.05334V12.276L1.58752 10.6881C1.23593 10.4155 1.28335 9.8862 1.58752 9.6413Z" fill="#D3F538"/>
<path d="M7.95909 11.8257L11.4945 15.8943C11.7591 16.2024 12.2371 16.2024 12.5018 15.8943L16.0372 11.8257C16.4085 11.3952 16.1083 10.7197 15.5315 10.7197H14.5401V6.85249C14.5401 6.48514 14.2438 6.18494 13.8725 6.18494H10.1159C9.74857 6.18494 9.44837 6.48117 9.44837 6.85249V10.7197H8.45678C7.89194 10.7197 7.58379 11.3912 7.95909 11.8257ZM10.1198 12.0509C10.4871 12.0509 10.7873 11.7546 10.7873 11.3833V7.51614H13.2127V11.3833C13.2127 11.7507 13.5089 12.0509 13.8803 12.0509H14.0778L12 14.4407L9.92222 12.0509H10.1198Z" fill="#D3F538"/>
</g>
<defs>
<clipPath id="clip0_36_14">
<rect width="24" height="24" fill="white"/>
</clipPath>
</defs>
</svg>
