<?xml version="1.0" encoding="iso-8859-1"?>
<!-- Uploaded to: SVG Repo, www.svgrepo.com, Generator: SVG Repo Mixer Tools -->
<svg height="800px" width="800px" version="1.1" id="Layer_1" xmlns="http://www.w3.org/2000/svg" xmlns:xlink="http://www.w3.org/1999/xlink" 
	 viewBox="0 0 392.533 392.533" xml:space="preserve">
<path style="fill:#91a7ff;" d="M21.851,356.906c0,7.628,6.271,13.899,13.899,13.899h282.828c7.628,0,13.899-6.271,13.899-13.899
	V245.714H21.851V356.906L21.851,356.906z"/>
<g>
	<path style="fill:#4263eb;" d="M63.483,343.007h17.39c6.012,0,10.925-4.848,10.925-10.925c0-6.012-4.848-10.925-10.925-10.925
		h-17.39c-6.012,0-10.925,4.849-10.925,10.925C52.622,338.029,57.471,343.007,63.483,343.007z"/>
	<path style="fill:#4263eb;" d="M133.43,343.007h17.39c6.012,0,10.925-4.848,10.925-10.925c0-6.012-4.848-10.925-10.925-10.925
		h-17.39c-6.012,0-10.925,4.849-10.925,10.925C122.57,338.029,127.483,343.007,133.43,343.007z"/>
	<path style="fill:#4263eb;" d="M203.442,343.007h17.39c6.012,0,10.925-4.848,10.925-10.925c0-6.012-4.848-10.925-10.925-10.925
		h-17.39c-6.012,0-10.925,4.849-10.925,10.925C192.582,338.029,197.43,343.007,203.442,343.007z"/>
	<path style="fill:#4263eb;" d="M273.39,343.007h17.39c6.012,0,10.925-4.848,10.925-10.925c0-6.012-4.849-10.925-10.925-10.925
		h-17.39c-6.012,0-10.925,4.849-10.925,10.925C262.465,338.029,267.378,343.007,273.39,343.007z"/>
</g>
<path style="fill:#FFC10D;" d="M332.412,176.283c0-7.628-6.271-13.899-13.899-13.899H35.685c-7.628,0-13.899,6.271-13.899,13.899
	v47.58h310.626V176.283z"/>
<g>
	<path style="fill:#FFFFFF;" d="M269.511,56.558l-83.976,84.04h133.042c19.717,0,35.685,15.968,35.685,35.685v9.438l12.347-12.347
		c5.43-5.43,5.43-14.222,0-19.717L269.511,56.558z"/>
	<path style="fill:#FFFFFF;" d="M104.727,140.598h49.972l99.426-99.426l-15.127-15.127c-5.236-5.236-14.481-5.236-19.717,0
		L104.727,140.598z"/>
</g>
<path style="fill:#4263eb;" d="M382.061,138.207L254.384,10.53c-14.869-14.287-35.943-13.77-50.554,0L73.891,140.598H35.749
	C16.032,140.598,0,156.566,0,176.283v180.558c0,19.717,16.097,35.685,35.749,35.685h282.828c19.717,0,35.685-15.968,35.685-35.685
	V216.558l27.798-27.798C396.024,174.861,396.024,152.17,382.061,138.207z M332.412,356.906c0,7.628-6.271,13.899-13.899,13.899
	H35.685c-7.628,0-13.899-6.271-13.899-13.899V245.714h310.626V356.906z M21.851,176.283c0-7.628,6.271-13.899,13.899-13.899h282.828
	c7.628,0,13.899,6.271,13.899,13.899v47.58H21.851V176.283L21.851,176.283z M238.998,26.045l15.127,15.127l-99.556,99.426h-49.972
	L219.281,25.98C224.517,20.679,233.762,20.744,238.998,26.045z M366.675,173.374l-12.347,12.347v-9.438
	c0-19.717-15.968-35.685-35.685-35.685H185.535l83.976-84.105l97.164,97.164C372.04,159.087,372.04,167.879,366.675,173.374z"/>
</svg>