<svg width="24" height="24" viewBox="0 0 24 24" fill="none" xmlns="http://www.w3.org/2000/svg">
<g clip-path="url(#clip0_36_28)">
<path d="M21.334 2.66406H2.66602V16.921H21.334V2.66406Z" fill="#16190E" fill-opacity="0.152941"/>
<path d="M22.002 0H2.00195C0.899203 0 0.00195312 0.897249 0.00195312 1.99999V17.5929C0.00195312 18.6917 0.899203 19.5889 2.00195 19.5889H8.27071L6.36163 23.0079C6.11658 23.4505 6.43671 23.9999 6.94266 23.9999H17.4447C17.9545 23.9999 18.2747 23.4505 18.0257 23.0079L16.1205 19.5928H21.998C23.1007 19.5928 23.998 18.6956 23.998 17.5928V2.00397C24.002 0.89725 23.1048 0 22.002 0ZM8.08105 22.668L9.79649 19.5929H14.5949L16.3104 22.668H8.08105ZM22.67 17.5929C22.67 17.9605 22.3736 18.2608 22.002 18.2608H2.00195C1.63437 18.2608 1.33398 17.9644 1.33398 17.5929V2.00397C1.33398 1.63639 1.63039 1.336 2.00195 1.336H22.002C22.3695 1.336 22.6699 1.63241 22.6699 2.00397V17.5969V17.5929H22.67Z" fill="#D3F538"/>
<path d="M9.08101 2.84192H3.5553C3.18772 2.84192 2.88733 3.13833 2.88733 3.50989V7.88932C2.88733 8.2569 3.18374 8.55729 3.5553 8.55729H9.08492C9.45251 8.55729 9.75289 8.26088 9.75289 7.88932V3.51386C9.74898 3.14628 9.45257 2.84192 9.08101 2.84192ZM8.41701 7.22533H4.21935V4.18183H8.41304V7.22533H8.41701Z" fill="#D3F538"/>
<path d="M20.4486 3.4704H12.1996C11.832 3.4704 11.5316 3.76681 11.5316 4.13837C11.5316 4.50595 11.828 4.80634 12.1996 4.80634H20.4486C20.8162 4.80634 21.1166 4.50992 21.1166 4.13837C21.1166 3.77079 20.8162 3.4704 20.4486 3.4704Z" fill="#D3F538"/>
<path d="M20.4486 6.60083H12.1996C11.832 6.60083 11.5316 6.89724 11.5316 7.2688C11.5316 7.63638 11.828 7.93677 12.1996 7.93677H20.4486C20.8162 7.93677 21.1166 7.64036 21.1166 7.2688C21.1166 6.89724 20.8162 6.60083 20.4486 6.60083Z" fill="#D3F538"/>
<path d="M20.4486 11.0356H14.9229C14.5553 11.0356 14.2549 11.332 14.2549 11.7036V16.0791C14.2549 16.4467 14.5513 16.747 14.9229 16.747H20.4525C20.8201 16.747 21.1204 16.4506 21.1204 16.0791V11.7036C21.1205 11.332 20.8161 11.0356 20.4486 11.0356ZM19.7846 15.4111H15.5869V12.3676H19.7806V15.4111H19.7846Z" fill="#D3F538"/>
<path d="M11.8044 11.6601H3.5553C3.18772 11.6601 2.88733 11.9565 2.88733 12.3281C2.88733 12.6996 3.18374 12.996 3.5553 12.996H11.8043C12.1719 12.996 12.4723 12.6996 12.4723 12.3281C12.4684 11.9566 12.168 11.6601 11.8044 11.6601Z" fill="#D3F538"/>
<path d="M11.8044 14.7866H3.5553C3.18772 14.7866 2.88733 15.083 2.88733 15.4545C2.88733 15.8261 3.18374 16.1225 3.5553 16.1225H11.8043C12.1719 16.1225 12.4723 15.826 12.4723 15.4545C12.4723 15.083 12.168 14.7866 11.8044 14.7866Z" fill="#D3F538"/>
</g>
<defs>
<clipPath id="clip0_36_28">
<rect width="24" height="24" fill="white"/>
</clipPath>
</defs>
</svg>
