<svg width="24" height="24" viewBox="0 0 24 24" fill="none" xmlns="http://www.w3.org/2000/svg">
<g clip-path="url(#clip0_36_43)">
<path d="M1.33606 21.8217C1.33606 22.2881 1.71948 22.6715 2.18586 22.6715H19.4783C19.9447 22.6715 20.3282 22.2881 20.3282 21.8217V15.0233H1.33606V21.8217Z" fill="#16190E" fill-opacity="0.152941"/>
<path d="M3.88147 20.9719H4.94472C5.3123 20.9719 5.61269 20.6755 5.61269 20.304C5.61269 19.9364 5.31627 19.636 4.94472 19.636H3.88147C3.51389 19.636 3.2135 19.9325 3.2135 20.304C3.21741 20.6676 3.51389 20.9719 3.88147 20.9719Z" fill="#D3F538"/>
<path d="M8.15808 20.9719H9.22133C9.58891 20.9719 9.8893 20.6755 9.8893 20.304C9.8893 19.9364 9.59289 19.636 9.22133 19.636H8.15808C7.7905 19.636 7.49011 19.9325 7.49011 20.304C7.49409 20.6676 7.79447 20.9719 8.15808 20.9719Z" fill="#D3F538"/>
<path d="M12.4387 20.9719H13.502C13.8696 20.9719 14.1699 20.6755 14.1699 20.304C14.1699 19.9364 13.8735 19.636 13.502 19.636H12.4387C12.0711 19.636 11.7708 19.9325 11.7708 20.304C11.7747 20.6676 12.0711 20.9719 12.4387 20.9719Z" fill="#D3F538"/>
<path d="M16.7155 20.9719H17.7787C18.1463 20.9719 18.4467 20.6755 18.4467 20.304C18.4467 19.9364 18.1502 19.636 17.7787 19.636H16.7155C16.3479 19.636 16.0475 19.9325 16.0475 20.304C16.0475 20.6676 16.3479 20.9719 16.7155 20.9719Z" fill="#D3F538"/>
<path d="M23.3597 8.45018L15.5534 0.643834C14.6443 -0.229693 13.3558 -0.198082 12.4624 0.643834L4.5178 8.59637H2.18574C0.980218 8.59637 0 9.57267 0 10.7782V21.8178C0 23.0233 0.984192 23.9996 2.18574 23.9996H19.4782C20.6838 23.9996 21.6601 23.0233 21.6601 21.8178V13.2407L23.3597 11.5411C24.2134 10.6913 24.2134 9.3039 23.3597 8.45018ZM20.3241 21.8217C20.3241 22.2881 19.9407 22.6715 19.4743 22.6715H2.18183C1.71544 22.6715 1.33203 22.2881 1.33203 21.8217V15.0233H20.3241V21.8217ZM1.336 10.7782C1.336 10.3118 1.71942 9.92839 2.1858 9.92839H19.4783C19.9447 9.92839 20.3281 10.3118 20.3281 10.7782V13.6873H1.336V10.7782ZM14.6127 1.59244L15.5375 2.51733L9.45056 8.59637H6.3952L13.4071 1.58847C13.7273 1.26436 14.2925 1.26833 14.6127 1.59244ZM22.419 10.6003L21.6641 11.3552V10.7782C21.6641 9.57267 20.6878 8.59637 19.4823 8.59637H11.3439L16.4783 3.45407L22.419 9.39481C22.747 9.72681 22.747 10.2644 22.419 10.6003Z" fill="#D3F538"/>
</g>
<defs>
<clipPath id="clip0_36_43">
<rect width="24" height="24" fill="white"/>
</clipPath>
</defs>
</svg>
