<svg width="24" height="25" viewBox="0 0 24 25" fill="none" xmlns="http://www.w3.org/2000/svg">
<path d="M21 3.79999H3C1.89543 3.79999 1 4.69542 1 5.79999V8.29999C1 9.40456 1.89543 10.3 3 10.3H21C22.1046 10.3 23 9.40456 23 8.29999V5.79999C23 4.69542 22.1046 3.79999 21 3.79999Z" stroke="#D3F538" stroke-width="1.2" stroke-linejoin="round"/>
<circle cx="3.5" cy="7.09998" r="1" stroke="#D3F538" stroke-width="0.7"/>
<path d="M12.5 6.29999H20" stroke="#D3F538" stroke-width="0.8" stroke-linecap="round" stroke-linejoin="round"/>
<path d="M12.5 8H20" stroke="#D3F538" stroke-width="0.8" stroke-linecap="round" stroke-linejoin="round"/>
<path d="M21 10.4H3C1.89543 10.4 1 11.2955 1 12.4V14.9C1 16.0046 1.89543 16.9 3 16.9H21C22.1046 16.9 23 16.0046 23 14.9V12.4C23 11.2955 22.1046 10.4 21 10.4Z" stroke="#D3F538" stroke-width="1.2" stroke-linejoin="round"/>
<circle cx="3.5" cy="13.2" r="1" stroke="#D3F538" stroke-width="0.7"/>
<path d="M12.5 12.4H20" stroke="#D3F538" stroke-width="0.8" stroke-linecap="round" stroke-linejoin="round"/>
<path d="M12.5 14.1H20" stroke="#D3F538" stroke-width="0.8" stroke-linecap="round" stroke-linejoin="round"/>
<path d="M21 17H3C1.89543 17 1 17.8954 1 19V21.5C1 22.6046 1.89543 23.5 3 23.5H21C22.1046 23.5 23 22.6046 23 21.5V19C23 17.8954 22.1046 17 21 17Z" stroke="#D3F538" stroke-width="1.2" stroke-linejoin="round"/>
<circle cx="3.5" cy="20.3" r="1" stroke="#D3F538" stroke-width="0.7"/>
<path d="M12.5 19.5H20" stroke="#D3F538" stroke-width="0.8" stroke-linecap="round" stroke-linejoin="round"/>
<path d="M12.5 21.2H20" stroke="#D3F538" stroke-width="0.8" stroke-linecap="round" stroke-linejoin="round"/>
<path d="M22.2001 4.1L19.2962 1.01459C19.1072 0.813802 18.8437 0.699951 18.568 0.699951H5.43213C5.15639 0.699951 4.8929 0.813802 4.70392 1.01459L1.80005 4.1" stroke="#D3F538" stroke-width="1.2" stroke-linecap="round" stroke-linejoin="round"/>
</svg>
